<svg version="1.1" xmlns="http://www.w3.org/2000/svg" viewBox="-675.1380612063535 -1257.1070824932854 2607.748766246033 1900.8352587365707"><desc>Created with Snap</desc><defs></defs><g><g transform="matrix(5.2378,0,0,5.2378,-418.8167,-1354.2425)">
<g id="gSks8wd1i9f">
	<g>
		<g>
			<g>
				<rect x="382.28619" y="94.77625" fill="none" width="8" height="8"></rect>
				<circle fill-rule="evenodd" clip-rule="evenodd" fill="#225662" cx="386.28619" cy="98.77625" r="4" style=""></circle>
			</g>
			<g>
				<rect x="382.28619" y="117.27039" fill="none" width="8" height="8"></rect>
				<circle fill-rule="evenodd" clip-rule="evenodd" fill="#225662" cx="386.28619" cy="121.27039" r="4" style=""></circle>
			</g>
			<g>
				<rect x="382.28619" y="139.76453" fill="none" width="8" height="8"></rect>
				<circle fill-rule="evenodd" clip-rule="evenodd" fill="#225662" cx="386.28619" cy="143.76453" r="4" style=""></circle>
			</g>
			<g>
				<rect x="382.28619" y="162.25867" fill="none" width="8" height="8"></rect>
				<circle fill-rule="evenodd" clip-rule="evenodd" fill="#225662" cx="386.28619" cy="166.25867" r="4" style=""></circle>
			</g>
			<g>
				<rect x="382.28619" y="184.75281" fill="none" width="8" height="8"></rect>
				<circle fill-rule="evenodd" clip-rule="evenodd" fill="#225662" cx="386.28619" cy="188.75281" r="4" style=""></circle>
			</g>
			<g>
				<rect x="382.28619" y="207.24719" fill="none" width="8" height="8"></rect>
				<circle fill-rule="evenodd" clip-rule="evenodd" fill="#225662" cx="386.28619" cy="211.24719" r="4" style=""></circle>
			</g>
			<g>
				<rect x="382.28619" y="229.74133" fill="none" width="8" height="8"></rect>
				<circle fill-rule="evenodd" clip-rule="evenodd" fill="#225662" cx="386.28619" cy="233.74133" r="4" style=""></circle>
			</g>
			<g>
				<rect x="382.28619" y="252.23547" fill="none" width="8" height="8"></rect>
				<circle fill-rule="evenodd" clip-rule="evenodd" fill="#225662" cx="386.28619" cy="256.23547" r="4" style=""></circle>
			</g>
			<g>
				<rect x="382.28619" y="274.72961" fill="none" width="8" height="8"></rect>
				<circle fill-rule="evenodd" clip-rule="evenodd" fill="#225662" cx="386.28619" cy="278.72961" r="4" style=""></circle>
			</g>
			<g>
				<rect x="382.28619" y="297.22375" fill="none" width="8" height="8"></rect>
				<circle fill-rule="evenodd" clip-rule="evenodd" fill="#225662" cx="386.28619" cy="301.22375" r="4" style=""></circle>
			</g>
			<g>
				<rect x="364.70618" y="314.80383" fill="none" width="8" height="8"></rect>
				<circle fill-rule="evenodd" clip-rule="evenodd" fill="#225662" cx="368.70618" cy="318.80383" r="4" style=""></circle>
			</g>
			<g>
				<rect x="342.21204" y="314.80383" fill="none" width="8" height="8"></rect>
				<circle fill-rule="evenodd" clip-rule="evenodd" fill="#225662" cx="346.21204" cy="318.80383" r="4" style=""></circle>
			</g>
			<g>
				<rect x="319.71783" y="314.80383" fill="none" width="8" height="8"></rect>
				<circle fill-rule="evenodd" clip-rule="evenodd" fill="#225662" cx="323.71783" cy="318.80383" r="4" style=""></circle>
			</g>
			<g>
				<rect x="297.22369" y="314.80383" fill="none" width="8" height="8"></rect>
				<circle fill-rule="evenodd" clip-rule="evenodd" fill="#225662" cx="301.22369" cy="318.80383" r="4" style=""></circle>
			</g>
			<g>
				<rect x="274.72955" y="314.80383" fill="none" width="8" height="8"></rect>
				<circle fill-rule="evenodd" clip-rule="evenodd" fill="#225662" cx="278.72955" cy="318.80383" r="4" style=""></circle>
			</g>
			<g>
				<rect x="252.23541" y="314.80383" fill="none" width="8" height="8"></rect>
				<circle fill-rule="evenodd" clip-rule="evenodd" fill="#225662" cx="256.23541" cy="318.80383" r="4" style=""></circle>
			</g>
			<g>
				<rect x="229.74127" y="314.80383" fill="none" width="8" height="8"></rect>
				<circle fill-rule="evenodd" clip-rule="evenodd" fill="#225662" cx="233.74127" cy="318.80383" r="4" style=""></circle>
			</g>
			<g>
				<rect x="207.24713" y="314.80383" fill="none" width="8" height="8"></rect>
				<circle fill-rule="evenodd" clip-rule="evenodd" fill="#225662" cx="211.24713" cy="318.80383" r="4" style=""></circle>
			</g>
			<g>
				<rect x="184.75293" y="314.80383" fill="none" width="8" height="8"></rect>
				<circle fill-rule="evenodd" clip-rule="evenodd" fill="#225662" cx="188.75293" cy="318.80383" r="4" style=""></circle>
			</g>
			<g>
				<rect x="162.25879" y="314.80383" fill="none" width="8" height="8"></rect>
				<circle fill-rule="evenodd" clip-rule="evenodd" fill="#225662" cx="166.25879" cy="318.80383" r="4" style=""></circle>
			</g>
			<g>
				<rect x="139.76465" y="314.80383" fill="none" width="8" height="8"></rect>
				<circle fill-rule="evenodd" clip-rule="evenodd" fill="#225662" cx="143.76465" cy="318.80383" r="4" style=""></circle>
			</g>
			<g>
				<rect x="117.27051" y="314.80383" fill="none" width="8" height="8"></rect>
				<circle fill-rule="evenodd" clip-rule="evenodd" fill="#225662" cx="121.27051" cy="318.80383" r="4" style=""></circle>
			</g>
			<g>
				<rect x="94.77637" y="314.80383" fill="none" width="8" height="8"></rect>
				<circle fill-rule="evenodd" clip-rule="evenodd" fill="#225662" cx="98.77637" cy="318.80383" r="4" style=""></circle>
			</g>
			<g>
				<rect x="72.2822" y="314.80383" fill="none" width="8" height="8"></rect>
				<circle fill-rule="evenodd" clip-rule="evenodd" fill="#225662" cx="76.2822" cy="318.80383" r="4" style=""></circle>
			</g>
			<g>
				<rect x="49.78806" y="314.80383" fill="none" width="8" height="8"></rect>
				<circle fill-rule="evenodd" clip-rule="evenodd" fill="#225662" cx="53.78806" cy="318.80383" r="4" style=""></circle>
			</g>
			<g>
				<rect x="27.29391" y="314.80383" fill="none" width="8" height="8"></rect>
				<circle fill-rule="evenodd" clip-rule="evenodd" fill="#225662" cx="31.29391" cy="318.80383" r="4" style=""></circle>
			</g>
			<g>
				<rect x="9.71381" y="297.22375" fill="none" width="8" height="8"></rect>
				<circle fill-rule="evenodd" clip-rule="evenodd" fill="#225662" cx="13.71381" cy="301.22375" r="4" style=""></circle>
			</g>
			<g>
				<rect x="9.71381" y="274.72961" fill="none" width="8" height="8"></rect>
				<circle fill-rule="evenodd" clip-rule="evenodd" fill="#225662" cx="13.71381" cy="278.72961" r="4" style=""></circle>
			</g>
			<g>
				<rect x="9.71381" y="252.23547" fill="none" width="8" height="8"></rect>
				<circle fill-rule="evenodd" clip-rule="evenodd" fill="#225662" cx="13.71381" cy="256.23547" r="4" style=""></circle>
			</g>
			<g>
				<rect x="9.71381" y="229.74133" fill="none" width="8" height="8"></rect>
				<circle fill-rule="evenodd" clip-rule="evenodd" fill="#225662" cx="13.71381" cy="233.74133" r="4" style=""></circle>
			</g>
			<g>
				<rect x="9.71381" y="207.24719" fill="none" width="8" height="8"></rect>
				<circle fill-rule="evenodd" clip-rule="evenodd" fill="#225662" cx="13.71381" cy="211.24719" r="4" style=""></circle>
			</g>
			<g>
				<rect x="9.71381" y="184.75305" fill="none" width="8" height="8"></rect>
				<circle fill-rule="evenodd" clip-rule="evenodd" fill="#225662" cx="13.71381" cy="188.75305" r="4" style=""></circle>
			</g>
			<g>
				<rect x="9.71381" y="162.25891" fill="none" width="8" height="8"></rect>
				<circle fill-rule="evenodd" clip-rule="evenodd" fill="#225662" cx="13.71381" cy="166.25891" r="4" style=""></circle>
			</g>
			<g>
				<rect x="9.71381" y="139.76477" fill="none" width="8" height="8"></rect>
				<circle fill-rule="evenodd" clip-rule="evenodd" fill="#225662" cx="13.71381" cy="143.76477" r="4" style=""></circle>
			</g>
			<g>
				<rect x="9.71381" y="117.27063" fill="none" width="8" height="8"></rect>
				<circle fill-rule="evenodd" clip-rule="evenodd" fill="#225662" cx="13.71381" cy="121.27063" r="4" style=""></circle>
			</g>
			<g>
				<rect x="9.71381" y="94.77649" fill="none" width="8" height="8"></rect>
				<circle fill-rule="evenodd" clip-rule="evenodd" fill="#225662" cx="13.71381" cy="98.77649" r="4" style=""></circle>
			</g>
			<g>
				<rect x="27.29385" y="77.19617" fill="none" width="8" height="8"></rect>
				<circle fill-rule="evenodd" clip-rule="evenodd" fill="#225662" cx="31.29385" cy="81.19617" r="4" style=""></circle>
			</g>
			<g>
				<rect x="49.78799" y="77.19617" fill="none" width="8" height="8"></rect>
				<circle fill-rule="evenodd" clip-rule="evenodd" fill="#225662" cx="53.78799" cy="81.19617" r="4" style=""></circle>
			</g>
			<g>
				<rect x="72.28217" y="77.19617" fill="none" width="8" height="8"></rect>
				<circle fill-rule="evenodd" clip-rule="evenodd" fill="#225662" cx="76.28217" cy="81.19617" r="4" style=""></circle>
			</g>
			<g>
				<rect x="94.77631" y="77.19617" fill="none" width="8" height="8"></rect>
				<circle fill-rule="evenodd" clip-rule="evenodd" fill="#225662" cx="98.77631" cy="81.19617" r="4" style=""></circle>
			</g>
			<g>
				<rect x="117.27045" y="77.19617" fill="none" width="8" height="8"></rect>
				<circle fill-rule="evenodd" clip-rule="evenodd" fill="#225662" cx="121.27045" cy="81.19617" r="4" style=""></circle>
			</g>
			<g>
				<rect x="139.76462" y="77.19617" fill="none" width="7.99997" height="8"></rect>
				<circle fill-rule="evenodd" clip-rule="evenodd" fill="#225662" cx="143.76459" cy="81.19617" r="3.99999" style=""></circle>
			</g>
			<g>
				<rect x="162.25873" y="77.19617" fill="none" width="8" height="8"></rect>
				<circle fill-rule="evenodd" clip-rule="evenodd" fill="#225662" cx="166.25873" cy="81.19617" r="4" style=""></circle>
			</g>
			<g>
				<rect x="184.75293" y="77.19617" fill="none" width="8" height="8"></rect>
				<circle fill-rule="evenodd" clip-rule="evenodd" fill="#225662" cx="188.75293" cy="81.19617" r="4" style=""></circle>
			</g>
			<g>
				<rect x="207.24707" y="77.19617" fill="none" width="8" height="8"></rect>
				<circle fill-rule="evenodd" clip-rule="evenodd" fill="#225662" cx="211.24707" cy="81.19617" r="4" style=""></circle>
			</g>
			<g>
				<rect x="229.74121" y="77.19617" fill="none" width="8" height="8"></rect>
				<circle fill-rule="evenodd" clip-rule="evenodd" fill="#225662" cx="233.74121" cy="81.19617" r="4" style=""></circle>
			</g>
			<g>
				<rect x="252.23535" y="77.19617" fill="none" width="8" height="8"></rect>
				<circle fill-rule="evenodd" clip-rule="evenodd" fill="#225662" cx="256.23535" cy="81.19617" r="4" style=""></circle>
			</g>
			<g>
				<rect x="274.72949" y="77.19617" fill="none" width="8" height="8"></rect>
				<circle fill-rule="evenodd" clip-rule="evenodd" fill="#225662" cx="278.72949" cy="81.19617" r="4" style=""></circle>
			</g>
			<g>
				<rect x="297.22363" y="77.19617" fill="none" width="8" height="8"></rect>
				<circle fill-rule="evenodd" clip-rule="evenodd" fill="#225662" cx="301.22363" cy="81.19617" r="4" style=""></circle>
			</g>
			<g>
				<rect x="319.71783" y="77.19617" fill="none" width="8" height="8"></rect>
				<circle fill-rule="evenodd" clip-rule="evenodd" fill="#225662" cx="323.71783" cy="81.19617" r="4" style=""></circle>
			</g>
			<g>
				<rect x="342.21198" y="77.19617" fill="none" width="8" height="8"></rect>
				<circle fill-rule="evenodd" clip-rule="evenodd" fill="#225662" cx="346.21198" cy="81.19617" r="4" style=""></circle>
			</g>
			<g>
				<rect x="364.70612" y="77.19617" fill="none" width="8" height="8"></rect>
				<circle fill-rule="evenodd" clip-rule="evenodd" fill="#225662" cx="368.70612" cy="81.19617" r="4" style=""></circle>
			</g>
			<g>
				<rect x="382.28613" y="314.80383" fill="none" width="8" height="8"></rect>
				<polygon fill-rule="evenodd" clip-rule="evenodd" fill="#225662" points="382.28613,318.80383 382.29132,318.59802 
					382.30676,318.3949 382.33221,318.1947 382.36737,317.99768 382.41199,317.80408 382.46588,317.61438 382.52881,317.42859 
					382.6004,317.24695 382.68048,317.0697 382.7688,316.89709 382.86511,316.72961 382.96918,316.5675 383.08069,316.41052 
					383.1994,316.2594 383.32513,316.11438 383.45752,315.97546 383.59644,315.8429 383.74158,315.71716 383.8927,315.59851 
					384.0495,315.48694 384.21179,315.38293 384.37933,315.2865 384.55176,315.19812 384.729,315.11804 384.91064,315.04651 
					385.0965,314.98352 385.28632,314.92981 385.47986,314.88513 385.67688,314.84998 385.87708,314.82434 386.08026,314.80896 
					386.28613,314.80383 386.492,314.80896 386.69513,314.82434 386.89532,314.84998 387.09235,314.88513 387.28589,314.92981 
					387.47571,314.98352 387.66156,315.04651 387.8432,315.11804 388.02039,315.19812 388.19287,315.2865 388.36041,315.38293 
					388.52271,315.48694 388.6795,315.59851 388.83063,315.71716 388.97577,315.8429 389.11462,315.97546 389.24707,316.11438 
					389.3728,316.2594 389.49152,316.41052 389.60303,316.5675 389.70709,316.72961 389.80341,316.89709 389.89172,317.0697 
					389.9718,317.24695 390.0434,317.42859 390.10632,317.61438 390.16022,317.80408 390.20483,317.99768 390.24005,318.1947 
					390.26544,318.3949 390.28088,318.59802 390.28613,318.80383 390.28088,319.00964 390.26544,319.21277 390.24005,319.41296 
					390.20483,319.60974 390.16022,319.80334 390.10632,319.99304 390.0434,320.17883 389.9718,320.36047 389.89172,320.53772 
					389.80341,320.71033 389.70709,320.87781 389.60303,321.04016 389.49152,321.1969 389.3728,321.34802 389.24707,321.49304 
					389.11462,321.63196 388.97577,321.76453 388.83063,321.89026 388.6795,322.00891 388.52271,322.12048 388.36041,322.22449 
					388.19287,322.32092 388.02039,322.4093 387.8432,322.48938 387.66156,322.56091 387.47571,322.6239 387.28589,322.67786 
					387.09235,322.72253 386.89532,322.75769 386.69513,322.78308 386.492,322.79846 386.28613,322.80383 386.08026,322.79846 
					385.87708,322.78308 385.67688,322.75769 385.47986,322.72253 385.28632,322.67786 385.0965,322.6239 384.91064,322.56091 
					384.729,322.48938 384.55176,322.4093 384.37933,322.32092 384.21179,322.22449 384.0495,322.12048 383.8927,322.00891 
					383.74158,321.89026 383.59644,321.76453 383.45752,321.63196 383.32513,321.49304 383.1994,321.34802 383.08069,321.1969 
					382.96918,321.04016 382.86511,320.87781 382.7688,320.71033 382.68048,320.53772 382.6004,320.36047 382.52881,320.17883 
					382.46588,319.99304 382.41199,319.80334 382.36737,319.60974 382.33221,319.41296 382.30676,319.21277 382.29132,319.00964 
									" style=""></polygon>
			</g>
			<g>
				<rect x="9.71381" y="314.80359" fill="none" width="8" height="8"></rect>
				<polygon fill-rule="evenodd" clip-rule="evenodd" fill="#225662" points="13.71381,314.80359 13.91965,314.80896 
					14.12277,314.82434 14.32294,314.84973 14.5199,314.88489 14.71341,314.92957 14.90323,314.98352 15.08908,315.04626 
					15.27072,315.11804 15.44791,315.19812 15.62039,315.2865 15.7879,315.38269 15.9502,315.48669 16.10703,315.59827 
					16.25812,315.71692 16.40326,315.84265 16.54218,315.97522 16.67462,316.11414 16.80035,316.25916 16.9191,316.41028 
					17.03064,316.56702 17.13467,316.72937 17.23099,316.89685 17.31934,317.06946 17.39944,317.24646 17.47107,317.4281 
					17.53397,317.61414 17.58786,317.80383 17.63254,317.99744 17.66772,318.19446 17.69315,318.39465 17.70862,318.59778 
					17.71381,318.80359 17.70862,319.00964 17.69315,319.21277 17.66772,319.41296 17.63254,319.60999 17.58786,319.80334 
					17.53397,319.99329 17.47107,320.17908 17.39944,320.36072 17.31934,320.53796 17.23099,320.71057 17.13467,320.87805 
					17.03064,321.04016 16.9191,321.19714 16.80035,321.34827 16.67462,321.49329 16.54218,321.6322 16.40326,321.76477 
					16.25812,321.89026 16.10703,322.00916 15.9502,322.12073 15.7879,322.22473 15.62039,322.32092 15.44791,322.4093 
					15.27072,322.48938 15.08908,322.56091 14.90323,322.6239 14.71341,322.67786 14.5199,322.72253 14.32294,322.75769 
					14.12277,322.78308 13.91965,322.79846 13.71381,322.80359 13.508,322.79846 13.3049,322.78308 13.10474,322.75769 
					12.90778,322.72253 12.71426,322.67786 12.52448,322.6239 12.33862,322.56091 12.15698,322.48938 11.97983,322.4093 
					11.80734,322.32092 11.63983,322.22473 11.47754,322.12073 11.32071,322.00916 11.16959,321.89026 11.02444,321.76477 
					10.88553,321.6322 10.75308,321.49329 10.62735,321.34827 10.50858,321.19714 10.39703,321.04016 10.293,320.87805 
					10.19666,320.71057 10.10831,320.53796 10.0282,320.36072 9.95657,320.17908 9.89368,319.99329 9.83975,319.80334 
					9.7951,319.60999 9.75992,319.41296 9.73447,319.21277 9.71902,319.00964 9.71381,318.80359 9.71902,318.59778 
					9.73447,318.39465 9.75992,318.19446 9.7951,317.99744 9.83975,317.80383 9.89368,317.61414 9.95657,317.4281 
					10.0282,317.24646 10.10831,317.06946 10.19666,316.89685 10.293,316.72937 10.39703,316.56702 10.50858,316.41028 
					10.62735,316.25916 10.75308,316.11414 10.88553,315.97522 11.02444,315.84265 11.16959,315.71692 11.32071,315.59827 
					11.47754,315.48669 11.63983,315.38269 11.80734,315.2865 11.97983,315.19812 12.15698,315.11804 12.33862,315.04626 
					12.52448,314.98352 12.71426,314.92957 12.90778,314.88489 13.10474,314.84973 13.3049,314.82434 13.508,314.80896 				" style=""></polygon>
			</g>
			<g>
				<rect x="9.7139" y="77.19617" fill="none" width="8" height="8"></rect>
				<polygon fill-rule="evenodd" clip-rule="evenodd" fill="#225662" points="17.7139,81.19617 17.70871,81.40222 
					17.69327,81.60535 17.66782,81.8053 17.63266,82.00232 17.58801,82.19592 17.53412,82.38562 17.47122,82.57166 
					17.39963,82.7533 17.31952,82.9303 17.2312,83.10291 17.13489,83.27039 17.03085,83.43274 16.91934,83.58948 16.80063,83.7406 
					16.6749,83.88562 16.54248,84.02454 16.40356,84.1571 16.25842,84.28284 16.10733,84.40149 15.9505,84.51306 15.78821,84.61707 
					15.6207,84.7135 15.44824,84.80188 15.27103,84.88196 15.08939,84.95349 14.90353,85.01648 14.71368,85.07043 
					14.52014,85.11511 14.32315,85.15027 14.12296,85.17566 13.91977,85.19104 13.7139,85.19617 13.50806,85.19104 
					13.30487,85.17566 13.10468,85.15027 12.90768,85.11511 12.71414,85.07043 12.52432,85.01648 12.33844,84.95349 
					12.1568,84.88196 11.97961,84.80188 11.80713,84.7135 11.63962,84.61707 11.47733,84.51306 11.32053,84.40149 11.1694,84.28284 
					11.02426,84.1571 10.88538,84.02454 10.75293,83.88562 10.62723,83.7406 10.50848,83.58948 10.39697,83.43274 
					10.29294,83.27039 10.19662,83.10291 10.10831,82.9303 10.0282,82.7533 9.9566,82.57166 9.89371,82.38562 9.83981,82.19592 
					9.79517,82.00232 9.75998,81.8053 9.73456,81.60535 9.71912,81.40222 9.7139,81.19617 9.71912,80.99036 9.73456,80.78748 
					9.75998,80.58728 9.79517,80.39026 9.83981,80.19666 9.89371,80.00696 9.9566,79.82117 10.0282,79.63953 10.10831,79.46228 
					10.19662,79.28992 10.29294,79.12219 10.39697,78.96008 10.50848,78.8031 10.62723,78.65198 10.75293,78.50696 
					10.88538,78.36804 11.02426,78.23547 11.1694,78.10974 11.32053,77.99109 11.47733,77.87952 11.63962,77.77551 
					11.80713,77.67908 11.97961,77.5907 12.1568,77.51062 12.33844,77.43909 12.52432,77.3761 12.71414,77.32214 12.90768,77.27747 
					13.10468,77.24231 13.30487,77.21692 13.50806,77.20154 13.7139,77.19617 13.91977,77.20154 14.12296,77.21692 
					14.32315,77.24231 14.52014,77.27747 14.71368,77.32214 14.90353,77.3761 15.08939,77.43909 15.27103,77.51062 
					15.44824,77.5907 15.6207,77.67908 15.78821,77.77551 15.9505,77.87952 16.10733,77.99109 16.25842,78.10974 16.40356,78.23547 
					16.54248,78.36804 16.6749,78.50696 16.80063,78.65198 16.91934,78.8031 17.03085,78.96008 17.13489,79.12219 17.2312,79.28992 
					17.31952,79.46228 17.39963,79.63953 17.47122,79.82117 17.53412,80.00696 17.58801,80.19666 17.63266,80.39026 
					17.66782,80.58728 17.69327,80.78748 17.70871,80.99036 				" style=""></polygon>
			</g>
			<g>
				<rect x="382.28619" y="77.19641" fill="none" width="8" height="8"></rect>
				<polygon fill-rule="evenodd" clip-rule="evenodd" fill="#225662" points="386.28619,85.19641 386.08038,85.19128 
					385.87726,85.17566 385.67706,85.15027 385.4801,85.11511 385.28662,85.07043 385.0968,85.01648 384.91095,84.95374 
					384.72931,84.8822 384.55212,84.80188 384.37964,84.71375 384.2121,84.61731 384.0498,84.51331 383.89301,84.40173 
					383.74188,84.28308 383.59674,84.15735 383.45782,84.02502 383.32538,83.88611 383.19965,83.74084 383.08093,83.58972 
					382.96936,83.43298 382.86536,83.27063 382.76904,83.10315 382.68066,82.93079 382.60059,82.75354 382.52893,82.5719 
					382.46606,82.38586 382.41217,82.19617 382.36749,82.00256 382.33228,81.80554 382.30688,81.60535 382.29144,81.40222 
					382.28619,81.19641 382.29144,80.9906 382.30688,80.78723 382.33228,80.58704 382.36749,80.39026 382.41217,80.19666 
					382.46606,80.00671 382.52893,79.82092 382.60059,79.63928 382.68066,79.46204 382.76904,79.28967 382.86536,79.12219 
					382.96936,78.95984 383.08093,78.80286 383.19965,78.65198 383.32538,78.50671 383.45782,78.3678 383.59674,78.23547 
					383.74188,78.10974 383.89301,77.99084 384.0498,77.87952 384.2121,77.77551 384.37964,77.67908 384.55212,77.5907 
					384.72931,77.51062 384.91095,77.43909 385.0968,77.3761 385.28662,77.32239 385.4801,77.27771 385.67706,77.24255 
					385.87726,77.21692 386.08038,77.20154 386.28619,77.19641 386.492,77.20154 386.69513,77.21692 386.89526,77.24255 
					387.09222,77.27771 387.28577,77.32239 387.47552,77.3761 387.66138,77.43909 387.84302,77.51062 388.0202,77.5907 
					388.19269,77.67908 388.36017,77.77551 388.52246,77.87952 388.67932,77.99084 388.83044,78.10974 388.97559,78.23547 
					389.1145,78.3678 389.24695,78.50671 389.37268,78.65198 389.49146,78.80286 389.60297,78.95984 389.70703,79.12219 
					389.80334,79.28967 389.89172,79.46204 389.9718,79.63928 390.04346,79.82092 390.10632,80.00671 390.16028,80.19666 
					390.20496,80.39026 390.24011,80.58704 390.26556,80.78723 390.28101,80.9906 390.28619,81.19641 390.28101,81.40222 
					390.26556,81.60535 390.24011,81.80554 390.20496,82.00256 390.16028,82.19617 390.10632,82.38586 390.04346,82.5719 
					389.9718,82.75354 389.89172,82.93079 389.80334,83.10315 389.70703,83.27063 389.60297,83.43298 389.49146,83.58972 
					389.37268,83.74084 389.24695,83.88611 389.1145,84.02502 388.97559,84.15735 388.83044,84.28308 388.67932,84.40173 
					388.52246,84.51331 388.36017,84.61731 388.19269,84.71375 388.0202,84.80188 387.84302,84.8822 387.66138,84.95374 
					387.47552,85.01648 387.28577,85.07043 387.09222,85.11511 386.89526,85.15027 386.69513,85.17566 386.492,85.19128 				" style=""></polygon>
			</g>
		</g>
		<g>
			<g>
				<rect x="371.03912" y="106.02332" fill="none" width="8" height="8"></rect>
				<circle fill-rule="evenodd" clip-rule="evenodd" fill="#225662" cx="375.03912" cy="110.02332" r="4" style=""></circle>
			</g>
			<g>
				<rect x="371.03912" y="128.51746" fill="none" width="8" height="8"></rect>
				<circle fill-rule="evenodd" clip-rule="evenodd" fill="#225662" cx="375.03912" cy="132.51746" r="4" style=""></circle>
			</g>
			<g>
				<rect x="371.03912" y="151.0116" fill="none" width="8" height="8"></rect>
				<circle fill-rule="evenodd" clip-rule="evenodd" fill="#225662" cx="375.03912" cy="155.0116" r="4" style=""></circle>
			</g>
			<g>
				<rect x="371.03912" y="173.50574" fill="none" width="8" height="8"></rect>
				<circle fill-rule="evenodd" clip-rule="evenodd" fill="#225662" cx="375.03912" cy="177.50574" r="4" style=""></circle>
			</g>
			<g>
				<rect x="371.03912" y="195.99988" fill="none" width="8" height="8"></rect>
				<circle fill-rule="evenodd" clip-rule="evenodd" fill="#225662" cx="375.03912" cy="199.99988" r="4" style=""></circle>
			</g>
			<g>
				<rect x="371.03912" y="218.49426" fill="none" width="8" height="8"></rect>
				<circle fill-rule="evenodd" clip-rule="evenodd" fill="#225662" cx="375.03912" cy="222.49426" r="4" style=""></circle>
			</g>
			<g>
				<rect x="371.03912" y="240.9884" fill="none" width="8" height="8"></rect>
				<circle fill-rule="evenodd" clip-rule="evenodd" fill="#225662" cx="375.03912" cy="244.9884" r="4" style=""></circle>
			</g>
			<g>
				<rect x="371.03912" y="263.48254" fill="none" width="8" height="8"></rect>
				<circle fill-rule="evenodd" clip-rule="evenodd" fill="#225662" cx="375.03912" cy="267.48254" r="4" style=""></circle>
			</g>
			<g>
				<rect x="371.03912" y="285.97668" fill="none" width="8" height="8"></rect>
				<circle fill-rule="evenodd" clip-rule="evenodd" fill="#225662" cx="375.03912" cy="289.97668" r="4" style=""></circle>
			</g>
			<g>
				<rect x="353.45911" y="303.55676" fill="none" width="8" height="8"></rect>
				<circle fill-rule="evenodd" clip-rule="evenodd" fill="#225662" cx="357.45911" cy="307.55676" r="4" style=""></circle>
			</g>
			<g>
				<rect x="330.9649" y="303.55676" fill="none" width="8" height="8"></rect>
				<circle fill-rule="evenodd" clip-rule="evenodd" fill="#225662" cx="334.9649" cy="307.55676" r="4" style=""></circle>
			</g>
			<g>
				<rect x="308.47076" y="303.55676" fill="none" width="8" height="8"></rect>
				<circle fill-rule="evenodd" clip-rule="evenodd" fill="#225662" cx="312.47076" cy="307.55676" r="4" style=""></circle>
			</g>
			<g>
				<rect x="285.97662" y="303.55676" fill="none" width="8" height="8"></rect>
				<circle fill-rule="evenodd" clip-rule="evenodd" fill="#225662" cx="289.97662" cy="307.55676" r="4" style=""></circle>
			</g>
			<g>
				<rect x="263.48248" y="303.55676" fill="none" width="8" height="8"></rect>
				<circle fill-rule="evenodd" clip-rule="evenodd" fill="#225662" cx="267.48248" cy="307.55676" r="4" style=""></circle>
			</g>
			<g>
				<rect x="240.98834" y="303.55676" fill="none" width="8" height="8"></rect>
				<circle fill-rule="evenodd" clip-rule="evenodd" fill="#225662" cx="244.98834" cy="307.55676" r="4" style=""></circle>
			</g>
			<g>
				<rect x="218.4942" y="303.55676" fill="none" width="8" height="8"></rect>
				<circle fill-rule="evenodd" clip-rule="evenodd" fill="#225662" cx="222.4942" cy="307.55676" r="4" style=""></circle>
			</g>
			<g>
				<rect x="196.00006" y="303.55676" fill="none" width="8" height="8"></rect>
				<circle fill-rule="evenodd" clip-rule="evenodd" fill="#225662" cx="200.00006" cy="307.55676" r="4" style=""></circle>
			</g>
			<g>
				<rect x="173.50586" y="303.55676" fill="none" width="8" height="8"></rect>
				<circle fill-rule="evenodd" clip-rule="evenodd" fill="#225662" cx="177.50586" cy="307.55676" r="4" style=""></circle>
			</g>
			<g>
				<rect x="151.01172" y="303.55676" fill="none" width="8" height="8"></rect>
				<circle fill-rule="evenodd" clip-rule="evenodd" fill="#225662" cx="155.01172" cy="307.55676" r="4" style=""></circle>
			</g>
			<g>
				<rect x="128.51758" y="303.55676" fill="none" width="8" height="8"></rect>
				<circle fill-rule="evenodd" clip-rule="evenodd" fill="#225662" cx="132.51758" cy="307.55676" r="4" style=""></circle>
			</g>
			<g>
				<rect x="106.02344" y="303.55676" fill="none" width="8" height="8"></rect>
				<circle fill-rule="evenodd" clip-rule="evenodd" fill="#225662" cx="110.02344" cy="307.55676" r="4" style=""></circle>
			</g>
			<g>
				<rect x="83.5293" y="303.55676" fill="none" width="8" height="8"></rect>
				<circle fill-rule="evenodd" clip-rule="evenodd" fill="#225662" cx="87.5293" cy="307.55676" r="4" style=""></circle>
			</g>
			<g>
				<rect x="61.03513" y="303.55676" fill="none" width="8" height="8"></rect>
				<circle fill-rule="evenodd" clip-rule="evenodd" fill="#225662" cx="65.03513" cy="307.55676" r="4" style=""></circle>
			</g>
			<g>
				<rect x="38.54099" y="303.55676" fill="none" width="8" height="8"></rect>
				<circle fill-rule="evenodd" clip-rule="evenodd" fill="#225662" cx="42.54099" cy="307.55676" r="4" style=""></circle>
			</g>
			<g>
				<rect x="20.96088" y="285.97668" fill="none" width="8" height="8"></rect>
				<circle fill-rule="evenodd" clip-rule="evenodd" fill="#225662" cx="24.96088" cy="289.97668" r="4" style=""></circle>
			</g>
			<g>
				<rect x="20.96088" y="263.48254" fill="none" width="8" height="8"></rect>
				<circle fill-rule="evenodd" clip-rule="evenodd" fill="#225662" cx="24.96088" cy="267.48254" r="4" style=""></circle>
			</g>
			<g>
				<rect x="20.96088" y="240.9884" fill="none" width="8" height="8"></rect>
				<circle fill-rule="evenodd" clip-rule="evenodd" fill="#225662" cx="24.96088" cy="244.9884" r="4" style=""></circle>
			</g>
			<g>
				<rect x="20.96088" y="218.49426" fill="none" width="8" height="8"></rect>
				<circle fill-rule="evenodd" clip-rule="evenodd" fill="#225662" cx="24.96088" cy="222.49426" r="4" style=""></circle>
			</g>
			<g>
				<rect x="20.96088" y="196.00012" fill="none" width="8" height="8"></rect>
				<circle fill-rule="evenodd" clip-rule="evenodd" fill="#225662" cx="24.96088" cy="200.00012" r="4" style=""></circle>
			</g>
			<g>
				<rect x="20.96088" y="173.50598" fill="none" width="8" height="8"></rect>
				<circle fill-rule="evenodd" clip-rule="evenodd" fill="#225662" cx="24.96088" cy="177.50598" r="4" style=""></circle>
			</g>
			<g>
				<rect x="20.96088" y="151.01184" fill="none" width="8" height="8"></rect>
				<circle fill-rule="evenodd" clip-rule="evenodd" fill="#225662" cx="24.96088" cy="155.01184" r="4" style=""></circle>
			</g>
			<g>
				<rect x="20.96088" y="128.5177" fill="none" width="8" height="8"></rect>
				<circle fill-rule="evenodd" clip-rule="evenodd" fill="#225662" cx="24.96088" cy="132.5177" r="4" style=""></circle>
			</g>
			<g>
				<rect x="20.96088" y="106.02356" fill="none" width="8" height="8"></rect>
				<circle fill-rule="evenodd" clip-rule="evenodd" fill="#225662" cx="24.96088" cy="110.02356" r="4" style=""></circle>
			</g>
			<g>
				<rect x="38.54092" y="88.44324" fill="none" width="8" height="8"></rect>
				<circle fill-rule="evenodd" clip-rule="evenodd" fill="#225662" cx="42.54092" cy="92.44324" r="4" style=""></circle>
			</g>
			<g>
				<rect x="61.0351" y="88.44324" fill="none" width="8" height="8"></rect>
				<circle fill-rule="evenodd" clip-rule="evenodd" fill="#225662" cx="65.0351" cy="92.44324" r="4" style=""></circle>
			</g>
			<g>
				<rect x="83.52924" y="88.44324" fill="none" width="8" height="8"></rect>
				<circle fill-rule="evenodd" clip-rule="evenodd" fill="#225662" cx="87.52924" cy="92.44324" r="4" style=""></circle>
			</g>
			<g>
				<rect x="106.02338" y="88.44324" fill="none" width="8" height="8"></rect>
				<circle fill-rule="evenodd" clip-rule="evenodd" fill="#225662" cx="110.02338" cy="92.44324" r="4" style=""></circle>
			</g>
			<g>
				<rect x="128.51755" y="88.44324" fill="none" width="8" height="8"></rect>
				<circle fill-rule="evenodd" clip-rule="evenodd" fill="#225662" cx="132.51755" cy="92.44324" r="4" style=""></circle>
			</g>
			<g>
				<rect x="151.01166" y="88.44324" fill="none" width="8" height="8"></rect>
				<circle fill-rule="evenodd" clip-rule="evenodd" fill="#225662" cx="155.01166" cy="92.44324" r="4" style=""></circle>
			</g>
			<g>
				<rect x="173.50586" y="88.44324" fill="none" width="8" height="8"></rect>
				<circle fill-rule="evenodd" clip-rule="evenodd" fill="#225662" cx="177.50586" cy="92.44324" r="4" style=""></circle>
			</g>
			<g>
				<rect x="196" y="88.44324" fill="none" width="8" height="8"></rect>
				<circle fill-rule="evenodd" clip-rule="evenodd" fill="#225662" cx="200" cy="92.44324" r="4" style=""></circle>
			</g>
			<g>
				<rect x="218.49414" y="88.44324" fill="none" width="8" height="8"></rect>
				<circle fill-rule="evenodd" clip-rule="evenodd" fill="#225662" cx="222.49414" cy="92.44324" r="4" style=""></circle>
			</g>
			<g>
				<rect x="240.98828" y="88.44324" fill="none" width="8" height="8"></rect>
				<circle fill-rule="evenodd" clip-rule="evenodd" fill="#225662" cx="244.98828" cy="92.44324" r="4" style=""></circle>
			</g>
			<g>
				<rect x="263.48242" y="88.44324" fill="none" width="8" height="8"></rect>
				<circle fill-rule="evenodd" clip-rule="evenodd" fill="#225662" cx="267.48242" cy="92.44324" r="4" style=""></circle>
			</g>
			<g>
				<rect x="285.97656" y="88.44324" fill="none" width="8" height="8"></rect>
				<circle fill-rule="evenodd" clip-rule="evenodd" fill="#225662" cx="289.97656" cy="92.44324" r="4" style=""></circle>
			</g>
			<g>
				<rect x="308.4707" y="88.44324" fill="none" width="8" height="8"></rect>
				<circle fill-rule="evenodd" clip-rule="evenodd" fill="#225662" cx="312.4707" cy="92.44324" r="4" style=""></circle>
			</g>
			<g>
				<rect x="330.9649" y="88.44324" fill="none" width="8" height="8"></rect>
				<circle fill-rule="evenodd" clip-rule="evenodd" fill="#225662" cx="334.9649" cy="92.44324" r="4" style=""></circle>
			</g>
			<g>
				<rect x="353.45905" y="88.44324" fill="none" width="8" height="8"></rect>
				<circle fill-rule="evenodd" clip-rule="evenodd" fill="#225662" cx="357.45905" cy="92.44324" r="4" style=""></circle>
			</g>
			<g>
				<rect x="371.03906" y="303.55676" fill="none" width="8" height="8"></rect>
				<polygon fill-rule="evenodd" clip-rule="evenodd" fill="#225662" points="371.03906,307.55676 371.04425,307.35095 
					371.05969,307.14783 371.08514,306.94763 371.1203,306.75061 371.16492,306.55701 371.21881,306.36731 371.28174,306.18152 
					371.35333,305.99988 371.43341,305.82263 371.52173,305.65002 371.61804,305.48254 371.72205,305.32043 371.83356,305.16345 
					371.95233,305.01233 372.07806,304.86731 372.21045,304.72839 372.34937,304.59583 372.49451,304.47009 372.64563,304.35144 
					372.80243,304.23987 372.96472,304.13586 373.13226,304.03943 373.30469,303.95105 373.48187,303.87097 373.66357,303.79944 
					373.84943,303.73645 374.03925,303.68274 374.23279,303.63806 374.42981,303.60291 374.63,303.57727 374.83319,303.56189 
					375.03906,303.55676 375.24487,303.56189 375.44806,303.57727 375.64825,303.60291 375.84528,303.63806 376.03882,303.68274 
					376.22864,303.73645 376.41449,303.79944 376.59613,303.87097 376.77332,303.95105 376.9458,304.03943 377.11334,304.13586 
					377.27563,304.23987 377.43243,304.35144 377.58356,304.47009 377.72864,304.59583 377.86755,304.72839 378,304.86731 
					378.12573,305.01233 378.24445,305.16345 378.35596,305.32043 378.46002,305.48254 378.55634,305.65002 378.64465,305.82263 
					378.72473,305.99988 378.79633,306.18152 378.85925,306.36731 378.91315,306.55701 378.95776,306.75061 378.99298,306.94763 
					379.01837,307.14783 379.03381,307.35095 379.03906,307.55676 379.03381,307.76257 379.01837,307.9657 378.99298,308.16565 
					378.95776,308.36267 378.91315,308.55627 378.85925,308.74597 378.79633,308.93176 378.72473,309.1134 378.64465,309.29065 
					378.55634,309.46326 378.46002,309.63074 378.35596,309.79285 378.24445,309.94983 378.12573,310.10095 378,310.24597 
					377.86755,310.38489 377.72864,310.51746 377.58356,310.64319 377.43243,310.76184 377.27563,310.87341 377.11334,310.97742 
					376.9458,311.07385 376.77332,311.16223 376.59613,311.24231 376.41449,311.31384 376.22864,311.37683 376.03882,311.43079 
					375.84528,311.47546 375.64825,311.51062 375.44806,311.53601 375.24487,311.55139 375.03906,311.55676 374.83319,311.55139 
					374.63,311.53601 374.42981,311.51062 374.23279,311.47546 374.03925,311.43079 373.84943,311.37683 373.66357,311.31384 
					373.48187,311.24231 373.30469,311.16223 373.13226,311.07385 372.96472,310.97742 372.80243,310.87341 372.64563,310.76184 
					372.49451,310.64319 372.34937,310.51746 372.21045,310.38489 372.07806,310.24597 371.95233,310.10095 371.83356,309.94983 
					371.72205,309.79285 371.61804,309.63074 371.52173,309.46326 371.43341,309.29065 371.35333,309.1134 371.28174,308.93176 
					371.21881,308.74597 371.16492,308.55627 371.1203,308.36267 371.08514,308.16565 371.05969,307.9657 371.04425,307.76257 				
					" style=""></polygon>
			</g>
			<g>
				<rect x="20.96088" y="303.55652" fill="none" width="8" height="8"></rect>
				<polygon fill-rule="evenodd" clip-rule="evenodd" fill="#225662" points="24.96088,303.55652 25.16672,303.56189 
					25.36984,303.57727 25.57001,303.60266 25.767,303.63782 25.96051,303.6825 26.1503,303.73645 26.33615,303.79919 
					26.51779,303.87097 26.69498,303.95105 26.86746,304.03918 27.03497,304.13562 27.19727,304.23962 27.3541,304.3512 
					27.50519,304.46985 27.65033,304.59558 27.78925,304.72815 27.92172,304.86707 28.04742,305.01208 28.1662,305.16321 
					28.27771,305.31995 28.38174,305.4823 28.47809,305.64978 28.56641,305.82239 28.64651,305.99939 28.71814,306.18103 
					28.78104,306.36707 28.83493,306.55676 28.87961,306.75037 28.91479,306.94739 28.94022,307.14758 28.95569,307.35071 
					28.96088,307.55652 28.95569,307.76257 28.94022,307.9657 28.91479,308.16589 28.87961,308.36292 28.83493,308.55627 
					28.78104,308.74622 28.71814,308.93201 28.64651,309.11365 28.56641,309.29089 28.47809,309.46326 28.38174,309.63098 
					28.27771,309.79309 28.1662,309.95007 28.04742,310.1012 27.92172,310.24622 27.78925,310.38513 27.65033,310.5177 
					27.50519,310.64319 27.3541,310.76208 27.19727,310.87366 27.03497,310.97766 26.86746,311.07385 26.69498,311.16223 
					26.51779,311.24231 26.33615,311.31384 26.1503,311.37683 25.96051,311.43079 25.767,311.47546 25.57001,311.51062 
					25.36984,311.53601 25.16672,311.55139 24.96088,311.55652 24.75507,311.55139 24.55197,311.53601 24.35181,311.51062 
					24.15485,311.47546 23.96136,311.43079 23.77155,311.37683 23.58569,311.31384 23.40405,311.24231 23.2269,311.16223 
					23.05441,311.07385 22.8869,310.97766 22.72461,310.87366 22.56778,310.76208 22.41669,310.64319 22.27151,310.5177 
					22.1326,310.38513 22.00015,310.24622 21.87442,310.1012 21.75565,309.95007 21.64413,309.79309 21.54007,309.63098 
					21.44373,309.46326 21.35541,309.29089 21.27527,309.11365 21.20364,308.93201 21.14075,308.74622 21.08685,308.55627 
					21.04218,308.36292 21.00699,308.16589 20.98154,307.9657 20.96609,307.76257 20.96088,307.55652 20.96609,307.35071 
					20.98154,307.14758 21.00699,306.94739 21.04218,306.75037 21.08685,306.55676 21.14075,306.36707 21.20364,306.18103 
					21.27527,305.99939 21.35541,305.82239 21.44373,305.64978 21.54007,305.4823 21.64413,305.31995 21.75565,305.16321 
					21.87442,305.01208 22.00015,304.86707 22.1326,304.72815 22.27151,304.59558 22.41669,304.46985 22.56778,304.3512 
					22.72461,304.23962 22.8869,304.13562 23.05441,304.03918 23.2269,303.95105 23.40405,303.87097 23.58569,303.79919 
					23.77155,303.73645 23.96136,303.6825 24.15485,303.63782 24.35181,303.60266 24.55197,303.57727 24.75507,303.56189 				" style=""></polygon>
			</g>
			<g>
				<rect x="20.961" y="88.44324" fill="none" width="8" height="8"></rect>
				<polygon fill-rule="evenodd" clip-rule="evenodd" fill="#225662" points="28.961,92.44324 28.95578,92.64929 28.94034,92.85242 
					28.91492,93.05237 28.87973,93.24939 28.83508,93.44299 28.78119,93.63269 28.71829,93.81873 28.6467,94.00037 
					28.56659,94.17737 28.47827,94.34998 28.38199,94.51746 28.27795,94.67981 28.16644,94.83655 28.0477,94.98767 27.922,95.13269 
					27.78955,95.27161 27.65063,95.40417 27.50549,95.52991 27.3544,95.64856 27.19757,95.76013 27.03528,95.86414 
					26.86777,95.96057 26.69531,96.04895 26.51813,96.12903 26.33646,96.20056 26.1506,96.26355 25.96075,96.3175 
					25.76721,96.36218 25.57022,96.39734 25.37003,96.42273 25.16684,96.43811 24.961,96.44324 24.75513,96.43811 
					24.55194,96.42273 24.35175,96.39734 24.15475,96.36218 23.96121,96.3175 23.77139,96.26355 23.58551,96.20056 
					23.40387,96.12903 23.22668,96.04895 23.0542,95.96057 22.88669,95.86414 22.7244,95.76013 22.5676,95.64856 22.41647,95.52991 
					22.27136,95.40417 22.13245,95.27161 22,95.13269 21.8743,94.98767 21.75555,94.83655 21.64404,94.67981 21.54001,94.51746 
					21.4437,94.34998 21.35538,94.17737 21.27527,94.00037 21.20367,93.81873 21.14078,93.63269 21.08688,93.44299 
					21.04224,93.24939 21.00708,93.05237 20.98163,92.85242 20.96619,92.64929 20.961,92.44324 20.96619,92.23743 
					20.98163,92.03455 21.00708,91.83435 21.04224,91.63733 21.08688,91.44373 21.14078,91.25403 21.20367,91.06824 
					21.27527,90.8866 21.35538,90.70935 21.4437,90.53699 21.54001,90.36926 21.64404,90.20715 21.75555,90.05017 21.8743,89.89905 
					22,89.75403 22.13245,89.61511 22.27136,89.48254 22.41647,89.35681 22.5676,89.23816 22.7244,89.12659 22.88669,89.02258 
					23.0542,88.92615 23.22668,88.83777 23.40387,88.75769 23.58551,88.68616 23.77139,88.62317 23.96121,88.56921 
					24.15475,88.52454 24.35175,88.48938 24.55194,88.46399 24.75513,88.44861 24.961,88.44324 25.16684,88.44861 
					25.37003,88.46399 25.57022,88.48938 25.76721,88.52454 25.96075,88.56921 26.1506,88.62317 26.33646,88.68616 
					26.51813,88.75769 26.69531,88.83777 26.86777,88.92615 27.03528,89.02258 27.19757,89.12659 27.3544,89.23816 
					27.50549,89.35681 27.65063,89.48254 27.78955,89.61511 27.922,89.75403 28.0477,89.89905 28.16644,90.05017 28.27795,90.20715 
					28.38199,90.36926 28.47827,90.53699 28.56659,90.70935 28.6467,90.8866 28.71829,91.06824 28.78119,91.25403 
					28.83508,91.44373 28.87973,91.63733 28.91492,91.83435 28.94034,92.03455 28.95578,92.23743 				" style=""></polygon>
			</g>
			<g>
				<rect x="371.03912" y="88.44348" fill="none" width="8" height="8"></rect>
				<polygon fill-rule="evenodd" clip-rule="evenodd" fill="#225662" points="375.03912,96.44348 374.83331,96.43835 
					374.63019,96.42273 374.42999,96.39734 374.23303,96.36218 374.03949,96.3175 373.84973,96.26355 373.66388,96.20081 
					373.48224,96.12927 373.30505,96.04895 373.13257,95.96082 372.96503,95.86438 372.80273,95.76038 372.64594,95.6488 
					372.49481,95.53015 372.34967,95.40442 372.21075,95.27209 372.07831,95.13318 371.95258,94.98792 371.83386,94.83679 
					371.72229,94.68005 371.61829,94.5177 371.52191,94.35022 371.43359,94.17786 371.35352,94.00061 371.28186,93.81897 
					371.21899,93.63318 371.1651,93.44324 371.12042,93.24963 371.08521,93.05261 371.05981,92.85242 371.04431,92.64929 
					371.03912,92.44348 371.04431,92.23767 371.05981,92.0343 371.08521,91.83411 371.12042,91.63733 371.1651,91.44373 
					371.21899,91.25378 371.28186,91.06799 371.35352,90.88635 371.43359,90.70911 371.52191,90.53674 371.61829,90.36926 
					371.72229,90.20691 371.83386,90.05017 371.95258,89.89905 372.07831,89.75378 372.21075,89.61487 372.34967,89.48254 
					372.49481,89.35681 372.64594,89.23792 372.80273,89.12659 372.96503,89.02258 373.13257,88.92615 373.30505,88.83777 
					373.48224,88.75769 373.66388,88.68616 373.84973,88.62317 374.03949,88.56946 374.23303,88.52478 374.42999,88.48962 
					374.63019,88.46399 374.83331,88.44861 375.03912,88.44348 375.24493,88.44861 375.44806,88.46399 375.64819,88.48962 
					375.84515,88.52478 376.0387,88.56946 376.22845,88.62317 376.41431,88.68616 376.59595,88.75769 376.77313,88.83777 
					376.94562,88.92615 377.1131,89.02258 377.27539,89.12659 377.43225,89.23792 377.58331,89.35681 377.72852,89.48254 
					377.86743,89.61487 377.99988,89.75378 378.12561,89.89905 378.24438,90.05017 378.3559,90.20691 378.45996,90.36926 
					378.55627,90.53674 378.64465,90.70911 378.72473,90.88635 378.79639,91.06799 378.85925,91.25378 378.91321,91.44373 
					378.95782,91.63733 378.99304,91.83411 379.01849,92.0343 379.03394,92.23767 379.03912,92.44348 379.03394,92.64929 
					379.01849,92.85242 378.99304,93.05261 378.95782,93.24963 378.91321,93.44324 378.85925,93.63318 378.79639,93.81897 
					378.72473,94.00061 378.64465,94.17786 378.55627,94.35022 378.45996,94.5177 378.3559,94.68005 378.24438,94.83679 
					378.12561,94.98792 377.99988,95.13318 377.86743,95.27209 377.72852,95.40442 377.58331,95.53015 377.43225,95.6488 
					377.27539,95.76038 377.1131,95.86438 376.94562,95.96082 376.77313,96.04895 376.59595,96.12927 376.41431,96.20081 
					376.22845,96.26355 376.0387,96.3175 375.84515,96.36218 375.64819,96.39734 375.44806,96.42273 375.24493,96.43835 				" style=""></polygon>
			</g>
		</g>
		<g>
			<g>
				<rect x="359.79205" y="117.27039" fill="none" width="8" height="8"></rect>
				<circle fill-rule="evenodd" clip-rule="evenodd" fill="#225662" cx="363.79205" cy="121.27039" r="4" style=""></circle>
			</g>
			<g>
				<rect x="359.79205" y="139.76453" fill="none" width="8" height="8"></rect>
				<circle fill-rule="evenodd" clip-rule="evenodd" fill="#225662" cx="363.79205" cy="143.76453" r="4" style=""></circle>
			</g>
			<g>
				<rect x="359.79205" y="162.25867" fill="none" width="8" height="8"></rect>
				<circle fill-rule="evenodd" clip-rule="evenodd" fill="#225662" cx="363.79205" cy="166.25867" r="4" style=""></circle>
			</g>
			<g>
				<rect x="359.79205" y="184.75281" fill="none" width="8" height="8"></rect>
				<circle fill-rule="evenodd" clip-rule="evenodd" fill="#225662" cx="363.79205" cy="188.75281" r="4" style=""></circle>
			</g>
			<g>
				<rect x="359.79205" y="207.24719" fill="none" width="8" height="8"></rect>
				<circle fill-rule="evenodd" clip-rule="evenodd" fill="#225662" cx="363.79205" cy="211.24719" r="4" style=""></circle>
			</g>
			<g>
				<rect x="359.79205" y="229.74133" fill="none" width="8" height="8"></rect>
				<circle fill-rule="evenodd" clip-rule="evenodd" fill="#225662" cx="363.79205" cy="233.74133" r="4" style=""></circle>
			</g>
			<g>
				<rect x="359.79205" y="252.23547" fill="none" width="8" height="8"></rect>
				<circle fill-rule="evenodd" clip-rule="evenodd" fill="#225662" cx="363.79205" cy="256.23547" r="4" style=""></circle>
			</g>
			<g>
				<rect x="359.79205" y="274.72961" fill="none" width="8" height="8"></rect>
				<circle fill-rule="evenodd" clip-rule="evenodd" fill="#225662" cx="363.79205" cy="278.72961" r="4" style=""></circle>
			</g>
			<g>
				<rect x="342.21204" y="292.30969" fill="none" width="8" height="8"></rect>
				<circle fill-rule="evenodd" clip-rule="evenodd" fill="#225662" cx="346.21204" cy="296.30969" r="4" style=""></circle>
			</g>
			<g>
				<rect x="319.71783" y="292.30969" fill="none" width="8" height="8"></rect>
				<circle fill-rule="evenodd" clip-rule="evenodd" fill="#225662" cx="323.71783" cy="296.30969" r="4" style=""></circle>
			</g>
			<g>
				<rect x="297.22369" y="292.30969" fill="none" width="8" height="8"></rect>
				<circle fill-rule="evenodd" clip-rule="evenodd" fill="#225662" cx="301.22369" cy="296.30969" r="4" style=""></circle>
			</g>
			<g>
				<rect x="274.72955" y="292.30969" fill="none" width="8" height="8"></rect>
				<circle fill-rule="evenodd" clip-rule="evenodd" fill="#225662" cx="278.72955" cy="296.30969" r="4" style=""></circle>
			</g>
			<g>
				<rect x="252.23541" y="292.30969" fill="none" width="8" height="8"></rect>
				<circle fill-rule="evenodd" clip-rule="evenodd" fill="#225662" cx="256.23541" cy="296.30969" r="4" style=""></circle>
			</g>
			<g>
				<rect x="229.74127" y="292.30969" fill="none" width="8" height="8"></rect>
				<circle fill-rule="evenodd" clip-rule="evenodd" fill="#225662" cx="233.74127" cy="296.30969" r="4" style=""></circle>
			</g>
			<g>
				<rect x="207.24713" y="292.30969" fill="none" width="8" height="8"></rect>
				<circle fill-rule="evenodd" clip-rule="evenodd" fill="#225662" cx="211.24713" cy="296.30969" r="4" style=""></circle>
			</g>
			<g>
				<rect x="184.75293" y="292.30969" fill="none" width="8" height="8"></rect>
				<circle fill-rule="evenodd" clip-rule="evenodd" fill="#225662" cx="188.75293" cy="296.30969" r="4" style=""></circle>
			</g>
			<g>
				<rect x="162.25879" y="292.30969" fill="none" width="8" height="8"></rect>
				<circle fill-rule="evenodd" clip-rule="evenodd" fill="#225662" cx="166.25879" cy="296.30969" r="4" style=""></circle>
			</g>
			<g>
				<rect x="139.76465" y="292.30969" fill="none" width="8" height="8"></rect>
				<circle fill-rule="evenodd" clip-rule="evenodd" fill="#225662" cx="143.76465" cy="296.30969" r="4" style=""></circle>
			</g>
			<g>
				<rect x="117.27051" y="292.30969" fill="none" width="8" height="8"></rect>
				<circle fill-rule="evenodd" clip-rule="evenodd" fill="#225662" cx="121.27051" cy="296.30969" r="4" style=""></circle>
			</g>
			<g>
				<rect x="94.77637" y="292.30969" fill="none" width="8" height="8"></rect>
				<circle fill-rule="evenodd" clip-rule="evenodd" fill="#225662" cx="98.77637" cy="296.30969" r="4" style=""></circle>
			</g>
			<g>
				<rect x="72.2822" y="292.30969" fill="none" width="8" height="8"></rect>
				<circle fill-rule="evenodd" clip-rule="evenodd" fill="#225662" cx="76.2822" cy="296.30969" r="4" style=""></circle>
			</g>
			<g>
				<rect x="49.78806" y="292.30969" fill="none" width="8" height="8"></rect>
				<circle fill-rule="evenodd" clip-rule="evenodd" fill="#225662" cx="53.78806" cy="296.30969" r="4" style=""></circle>
			</g>
			<g>
				<rect x="32.20795" y="274.72961" fill="none" width="8" height="8"></rect>
				<circle fill-rule="evenodd" clip-rule="evenodd" fill="#225662" cx="36.20795" cy="278.72961" r="4" style=""></circle>
			</g>
			<g>
				<rect x="32.20795" y="252.23547" fill="none" width="8" height="8"></rect>
				<circle fill-rule="evenodd" clip-rule="evenodd" fill="#225662" cx="36.20795" cy="256.23547" r="4" style=""></circle>
			</g>
			<g>
				<rect x="32.20795" y="229.74133" fill="none" width="8" height="8"></rect>
				<circle fill-rule="evenodd" clip-rule="evenodd" fill="#225662" cx="36.20795" cy="233.74133" r="4" style=""></circle>
			</g>
			<g>
				<rect x="32.20795" y="207.24719" fill="none" width="8" height="8"></rect>
				<circle fill-rule="evenodd" clip-rule="evenodd" fill="#225662" cx="36.20795" cy="211.24719" r="4" style=""></circle>
			</g>
			<g>
				<rect x="32.20795" y="184.75305" fill="none" width="8" height="8"></rect>
				<circle fill-rule="evenodd" clip-rule="evenodd" fill="#225662" cx="36.20795" cy="188.75305" r="4" style=""></circle>
			</g>
			<g>
				<rect x="32.20795" y="162.25891" fill="none" width="8" height="8"></rect>
				<circle fill-rule="evenodd" clip-rule="evenodd" fill="#225662" cx="36.20795" cy="166.25891" r="4" style=""></circle>
			</g>
			<g>
				<rect x="32.20795" y="139.76477" fill="none" width="8" height="8"></rect>
				<circle fill-rule="evenodd" clip-rule="evenodd" fill="#225662" cx="36.20795" cy="143.76477" r="4" style=""></circle>
			</g>
			<g>
				<rect x="32.20795" y="117.27063" fill="none" width="8" height="8"></rect>
				<circle fill-rule="evenodd" clip-rule="evenodd" fill="#225662" cx="36.20795" cy="121.27063" r="4" style=""></circle>
			</g>
			<g>
				<rect x="49.78799" y="99.69031" fill="none" width="8" height="8"></rect>
				<circle fill-rule="evenodd" clip-rule="evenodd" fill="#225662" cx="53.78799" cy="103.69031" r="4" style=""></circle>
			</g>
			<g>
				<rect x="72.28217" y="99.69031" fill="none" width="8" height="8"></rect>
				<circle fill-rule="evenodd" clip-rule="evenodd" fill="#225662" cx="76.28217" cy="103.69031" r="4" style=""></circle>
			</g>
			<g>
				<rect x="94.77631" y="99.69031" fill="none" width="8" height="8"></rect>
				<circle fill-rule="evenodd" clip-rule="evenodd" fill="#225662" cx="98.77631" cy="103.69031" r="4" style=""></circle>
			</g>
			<g>
				<rect x="117.27045" y="99.69031" fill="none" width="8" height="8"></rect>
				<circle fill-rule="evenodd" clip-rule="evenodd" fill="#225662" cx="121.27045" cy="103.69031" r="4" style=""></circle>
			</g>
			<g>
				<rect x="139.76462" y="99.69031" fill="none" width="7.99997" height="8"></rect>
				<circle fill-rule="evenodd" clip-rule="evenodd" fill="#225662" cx="143.76459" cy="103.69031" r="3.99999" style=""></circle>
			</g>
			<g>
				<rect x="162.25873" y="99.69031" fill="none" width="8" height="8"></rect>
				<circle fill-rule="evenodd" clip-rule="evenodd" fill="#225662" cx="166.25873" cy="103.69031" r="4" style=""></circle>
			</g>
			<g>
				<rect x="184.75293" y="99.69031" fill="none" width="8" height="8"></rect>
				<circle fill-rule="evenodd" clip-rule="evenodd" fill="#225662" cx="188.75293" cy="103.69031" r="4" style=""></circle>
			</g>
			<g>
				<rect x="207.24707" y="99.69031" fill="none" width="8" height="8"></rect>
				<circle fill-rule="evenodd" clip-rule="evenodd" fill="#225662" cx="211.24707" cy="103.69031" r="4" style=""></circle>
			</g>
			<g>
				<rect x="229.74121" y="99.69031" fill="none" width="8" height="8"></rect>
				<circle fill-rule="evenodd" clip-rule="evenodd" fill="#225662" cx="233.74121" cy="103.69031" r="4" style=""></circle>
			</g>
			<g>
				<rect x="252.23535" y="99.69031" fill="none" width="8" height="8"></rect>
				<circle fill-rule="evenodd" clip-rule="evenodd" fill="#225662" cx="256.23535" cy="103.69031" r="4" style=""></circle>
			</g>
			<g>
				<rect x="274.72949" y="99.69031" fill="none" width="8" height="8"></rect>
				<circle fill-rule="evenodd" clip-rule="evenodd" fill="#225662" cx="278.72949" cy="103.69031" r="4" style=""></circle>
			</g>
			<g>
				<rect x="297.22363" y="99.69031" fill="none" width="8" height="8"></rect>
				<circle fill-rule="evenodd" clip-rule="evenodd" fill="#225662" cx="301.22363" cy="103.69031" r="4" style=""></circle>
			</g>
			<g>
				<rect x="319.71783" y="99.69031" fill="none" width="8" height="8"></rect>
				<circle fill-rule="evenodd" clip-rule="evenodd" fill="#225662" cx="323.71783" cy="103.69031" r="4" style=""></circle>
			</g>
			<g>
				<rect x="342.21198" y="99.69031" fill="none" width="8" height="8"></rect>
				<circle fill-rule="evenodd" clip-rule="evenodd" fill="#225662" cx="346.21198" cy="103.69031" r="4" style=""></circle>
			</g>
			<g>
				<rect x="359.79193" y="292.30969" fill="none" width="8" height="8"></rect>
				<polygon fill-rule="evenodd" clip-rule="evenodd" fill="#225662" points="359.79193,296.30969 359.79718,296.10388 
					359.81262,295.90076 359.83801,295.70056 359.87323,295.50354 359.91785,295.30994 359.97174,295.12024 360.03461,294.93445 
					360.10626,294.75281 360.18634,294.57556 360.27466,294.40295 360.37097,294.23547 360.47498,294.07336 360.58649,293.91638 
					360.70526,293.76526 360.83093,293.62024 360.96338,293.48132 361.10229,293.34875 361.24744,293.22302 361.39856,293.10437 
					361.55536,292.9928 361.71765,292.88879 361.88513,292.79236 362.05762,292.70398 362.2348,292.6239 362.4165,292.55237 
					362.60236,292.48938 362.79218,292.43567 362.98572,292.39099 363.18274,292.35583 363.38293,292.3302 363.58606,292.31482 
					363.79193,292.30969 363.9978,292.31482 364.20099,292.3302 364.40118,292.35583 364.59821,292.39099 364.79175,292.43567 
					364.98157,292.48938 365.16742,292.55237 365.34906,292.6239 365.52625,292.70398 365.69873,292.79236 365.86627,292.88879 
					366.0285,292.9928 366.18536,293.10437 366.33649,293.22302 366.48157,293.34875 366.62048,293.48132 366.75293,293.62024 
					366.87866,293.76526 366.99738,293.91638 367.10889,294.07336 367.21295,294.23547 367.30927,294.40295 367.39758,294.57556 
					367.47766,294.75281 367.54926,294.93445 367.61218,295.12024 367.66608,295.30994 367.71069,295.50354 367.74585,295.70056 
					367.7713,295.90076 367.78674,296.10388 367.79193,296.30969 367.78674,296.5155 367.7713,296.71863 367.74585,296.91858 
					367.71069,297.1156 367.66608,297.3092 367.61218,297.4989 367.54926,297.68469 367.47766,297.86633 367.39758,298.04358 
					367.30927,298.21619 367.21295,298.38367 367.10889,298.54578 366.99738,298.70276 366.87866,298.85388 366.75293,298.9989 
					366.62048,299.13782 366.48157,299.27039 366.33649,299.39612 366.18536,299.51477 366.0285,299.62634 365.86627,299.73035 
					365.69873,299.82678 365.52625,299.91516 365.34906,299.99524 365.16742,300.06677 364.98157,300.12976 364.79175,300.18372 
					364.59821,300.22839 364.40118,300.26355 364.20099,300.28894 363.9978,300.30432 363.79193,300.30969 363.58606,300.30432 
					363.38293,300.28894 363.18274,300.26355 362.98572,300.22839 362.79218,300.18372 362.60236,300.12976 362.4165,300.06677 
					362.2348,299.99524 362.05762,299.91516 361.88513,299.82678 361.71765,299.73035 361.55536,299.62634 361.39856,299.51477 
					361.24744,299.39612 361.10229,299.27039 360.96338,299.13782 360.83093,298.9989 360.70526,298.85388 360.58649,298.70276 
					360.47498,298.54578 360.37097,298.38367 360.27466,298.21619 360.18634,298.04358 360.10626,297.86633 360.03461,297.68469 
					359.97174,297.4989 359.91785,297.3092 359.87323,297.1156 359.83801,296.91858 359.81262,296.71863 359.79718,296.5155 				" style=""></polygon>
			</g>
			<g>
				<rect x="32.20795" y="292.30945" fill="none" width="8" height="8"></rect>
				<polygon fill-rule="evenodd" clip-rule="evenodd" fill="#225662" points="36.20795,292.30945 36.41379,292.31482 
					36.61691,292.3302 36.81708,292.35559 37.01407,292.39075 37.20758,292.43542 37.39737,292.48938 37.58325,292.55212 
					37.76489,292.6239 37.94208,292.70398 38.11453,292.79211 38.28204,292.88855 38.44434,292.99255 38.60117,293.10413 
					38.75226,293.22278 38.8974,293.34851 39.03635,293.48108 39.16879,293.61975 39.29449,293.76501 39.41327,293.91614 
					39.52478,294.07288 39.62885,294.23523 39.72516,294.40271 39.81348,294.57532 39.89359,294.75232 39.96521,294.93396 
					40.02811,295.12 40.08203,295.30969 40.12668,295.5033 40.16187,295.70032 40.18732,295.90051 40.20276,296.10364 
					40.20795,296.30945 40.20276,296.5155 40.18732,296.71863 40.16187,296.91882 40.12668,297.11584 40.08203,297.3092 
					40.02811,297.49915 39.96521,297.68494 39.89359,297.86658 39.81348,298.04382 39.72516,298.21619 39.62885,298.38391 
					39.52478,298.54602 39.41327,298.703 39.29449,298.85413 39.16879,298.99915 39.03635,299.13806 38.8974,299.27039 
					38.75226,299.39612 38.60117,299.51501 38.44434,299.62659 38.28204,299.73059 38.11453,299.82678 37.94208,299.91516 
					37.76489,299.99524 37.58325,300.06677 37.39737,300.12976 37.20758,300.18372 37.01407,300.22815 36.81708,300.26355 
					36.61691,300.28894 36.41379,300.30432 36.20795,300.30945 36.00217,300.30432 35.79904,300.28894 35.59888,300.26355 
					35.40192,300.22815 35.20844,300.18372 35.01862,300.12976 34.83279,300.06677 34.65115,299.99524 34.47397,299.91516 
					34.30148,299.82678 34.13397,299.73059 33.97168,299.62659 33.81485,299.51501 33.66376,299.39612 33.51862,299.27039 
					33.37967,299.13806 33.24722,298.99915 33.12149,298.85413 33.00272,298.703 32.8912,298.54602 32.78714,298.38391 
					32.69083,298.21619 32.60248,298.04382 32.52234,297.86658 32.45071,297.68494 32.38782,297.49915 32.33392,297.3092 
					32.28925,297.11584 32.25406,296.91882 32.22861,296.71863 32.21317,296.5155 32.20795,296.30945 32.21317,296.10364 
					32.22861,295.90051 32.25406,295.70032 32.28925,295.5033 32.33392,295.30969 32.38782,295.12 32.45071,294.93396 
					32.52234,294.75232 32.60248,294.57532 32.69083,294.40271 32.78714,294.23523 32.8912,294.07288 33.00272,293.91614 
					33.12149,293.76501 33.24722,293.61975 33.37967,293.48108 33.51862,293.34851 33.66376,293.22278 33.81485,293.10413 
					33.97168,292.99255 34.13397,292.88855 34.30148,292.79211 34.47397,292.70398 34.65115,292.6239 34.83279,292.55212 
					35.01862,292.48938 35.20844,292.43542 35.40192,292.39075 35.59888,292.35559 35.79904,292.3302 36.00217,292.31482 				" style=""></polygon>
			</g>
			<g>
				<rect x="32.20807" y="99.69031" fill="none" width="8" height="8"></rect>
				<polygon fill-rule="evenodd" clip-rule="evenodd" fill="#225662" points="40.20807,103.69031 40.20285,103.89636 
					40.18741,104.09949 40.16199,104.29944 40.1268,104.49646 40.08215,104.69006 40.02826,104.87976 39.96539,105.0658 
					39.89377,105.24744 39.81369,105.42444 39.72534,105.59705 39.62906,105.76453 39.52502,105.92688 39.41351,106.08362 
					39.29477,106.23474 39.16907,106.37976 39.03662,106.51892 38.89771,106.65125 38.75259,106.77698 38.60147,106.89563 
					38.44464,107.0072 38.28238,107.11121 38.11487,107.20764 37.94238,107.29602 37.7652,107.3761 37.58353,107.44763 
					37.39767,107.51062 37.20786,107.56458 37.01431,107.60925 36.81729,107.64441 36.6171,107.6698 36.41394,107.68518 
					36.20807,107.69031 36.0022,107.68518 35.79904,107.6698 35.59882,107.64441 35.40182,107.60925 35.20828,107.56458 
					35.01846,107.51062 34.83261,107.44763 34.65094,107.3761 34.47375,107.29602 34.30127,107.20764 34.13379,107.11121 
					33.9715,107.0072 33.81467,106.89563 33.66354,106.77698 33.51843,106.65125 33.37952,106.51892 33.24707,106.37976 
					33.12137,106.23474 33.00262,106.08362 32.89111,105.92688 32.78708,105.76453 32.69077,105.59705 32.60245,105.42444 
					32.52237,105.24744 32.45074,105.0658 32.38788,104.87976 32.33398,104.69006 32.28931,104.49646 32.25415,104.29944 
					32.2287,104.09949 32.21326,103.89636 32.20807,103.69031 32.21326,103.4845 32.2287,103.28162 32.25415,103.08142 
					32.28931,102.8844 32.33398,102.6908 32.38788,102.5011 32.45074,102.31531 32.52237,102.13367 32.60245,101.95642 
					32.69077,101.78406 32.78708,101.61633 32.89111,101.45422 33.00262,101.29724 33.12137,101.14612 33.24707,101.0011 
					33.37952,100.86218 33.51843,100.72961 33.66354,100.60388 33.81467,100.48523 33.9715,100.37366 34.13379,100.26965 
					34.30127,100.17322 34.47375,100.08484 34.65094,100.00476 34.83261,99.93323 35.01846,99.87024 35.20828,99.81628 
					35.40182,99.77161 35.59882,99.73645 35.79904,99.71106 36.0022,99.69568 36.20807,99.69031 36.41394,99.69568 
					36.6171,99.71106 36.81729,99.73645 37.01431,99.77161 37.20786,99.81628 37.39767,99.87024 37.58353,99.93323 
					37.7652,100.00476 37.94238,100.08484 38.11487,100.17322 38.28238,100.26965 38.44464,100.37366 38.60147,100.48523 
					38.75259,100.60388 38.89771,100.72961 39.03662,100.86218 39.16907,101.0011 39.29477,101.14612 39.41351,101.29724 
					39.52502,101.45422 39.62906,101.61633 39.72534,101.78406 39.81369,101.95642 39.89377,102.13367 39.96539,102.31531 
					40.02826,102.5011 40.08215,102.6908 40.1268,102.8844 40.16199,103.08142 40.18741,103.28162 40.20285,103.4845 				" style=""></polygon>
			</g>
			<g>
				<rect x="359.79205" y="99.69055" fill="none" width="8" height="8"></rect>
				<polygon fill-rule="evenodd" clip-rule="evenodd" fill="#225662" points="363.79205,107.69055 363.58624,107.68542 
					363.38312,107.6698 363.18292,107.64441 362.98596,107.60925 362.79242,107.56458 362.60266,107.51062 362.41681,107.44788 
					362.23511,107.37634 362.05798,107.29602 361.8855,107.20789 361.71796,107.11145 361.55566,107.00745 361.39886,106.89587 
					361.24774,106.77722 361.1026,106.65149 360.96368,106.51917 360.83124,106.38025 360.70551,106.23499 360.58673,106.08386 
					360.47522,105.92712 360.37115,105.76477 360.27484,105.59729 360.18652,105.42493 360.10645,105.24768 360.03479,105.06604 
					359.97192,104.88025 359.91797,104.69031 359.87335,104.4967 359.83813,104.29968 359.81268,104.09949 359.79724,103.89636 
					359.79205,103.69055 359.79724,103.48474 359.81268,103.28162 359.83813,103.08118 359.87335,102.8844 359.91797,102.6908 
					359.97192,102.50085 360.03479,102.31506 360.10645,102.13342 360.18652,101.95618 360.27484,101.78381 360.37115,101.61633 
					360.47522,101.45398 360.58673,101.29724 360.70551,101.14612 360.83124,101.00085 360.96368,100.86194 361.1026,100.72961 
					361.24774,100.60388 361.39886,100.48499 361.55566,100.37366 361.71796,100.26965 361.8855,100.17322 362.05798,100.08484 
					362.23511,100.00476 362.41681,99.93323 362.60266,99.87024 362.79242,99.81653 362.98596,99.77185 363.18292,99.73669 
					363.38312,99.71106 363.58624,99.69568 363.79205,99.69055 363.99786,99.69568 364.20099,99.71106 364.40112,99.73669 
					364.59808,99.77185 364.79156,99.81653 364.98138,99.87024 365.16724,99.93323 365.34888,100.00476 365.52606,100.08484 
					365.69855,100.17322 365.86603,100.26965 366.02832,100.37366 366.18518,100.48499 366.33624,100.60388 366.48138,100.72961 
					366.62036,100.86194 366.75281,101.00085 366.87854,101.14612 366.99731,101.29724 367.10883,101.45398 367.21289,101.61633 
					367.3092,101.78381 367.39752,101.95618 367.47766,102.13342 367.54932,102.31506 367.61218,102.50085 367.66608,102.6908 
					367.71075,102.8844 367.74597,103.08118 367.77142,103.28162 367.78687,103.48474 367.79205,103.69055 367.78687,103.89636 
					367.77142,104.09949 367.74597,104.29968 367.71075,104.4967 367.66608,104.69031 367.61218,104.88025 367.54932,105.06604 
					367.47766,105.24768 367.39752,105.42493 367.3092,105.59729 367.21289,105.76477 367.10883,105.92712 366.99731,106.08386 
					366.87854,106.23499 366.75281,106.38025 366.62036,106.51917 366.48138,106.65149 366.33624,106.77722 366.18518,106.89587 
					366.02832,107.00745 365.86603,107.11145 365.69855,107.20789 365.52606,107.29602 365.34888,107.37634 365.16724,107.44788 
					364.98138,107.51062 364.79156,107.56458 364.59808,107.60925 364.40112,107.64441 364.20099,107.6698 363.99786,107.68542 				
					" style=""></polygon>
			</g>
		</g>
		<rect x="40.20795" y="107.69055" width="319.58411" height="184.6189" style="" fill="#225662"></rect>
	</g>
</g>


<desc>Created with Snap</desc><defs></defs></g><g><g transform="matrix(1.024,0,0,-1.024,0,0)"><path d="M491 -121Q468 -121 437 -95Q407 -68 374 -25Q341 18 309 69Q277 120 248 172Q220 224 201 265Q174 171 149 80Q124 -11 101 -88Q74 -88 50 -73Q26 -57 26 -32Q26 -21 31 -6Q36 9 40 23Q68 107 91 176Q114 245 135 305Q157 365 179 424Q202 483 228 546Q255 609 288 684Q248 677 218 663Q188 650 169 639Q150 629 143 629Q139 629 129 635Q120 641 113 649Q106 658 106 664Q134 675 170 688Q207 701 251 710Q295 720 342 720Q386 720 433 709Q480 699 520 676Q560 653 584 616Q608 580 608 529Q608 481 586 446Q565 412 529 388Q494 364 452 349Q410 334 367 326Q324 318 288 315Q253 312 231 311Q263 260 293 211Q323 162 357 114Q392 66 438 17Q485 -31 549 -81Q544 -98 525 -110Q507 -121 491 -121ZM222 337Q277 340 332 354Q387 369 432 394Q477 420 504 458Q531 497 531 549Q531 602 505 632Q479 663 438 676Q397 689 352 690Q318 622 285 529Q252 437 222 337ZM756 -87Q697 -87 667 -68Q637 -48 637 -3Q637 5 646 5Q654 5 672 0Q691 -5 742 -5Q830 -5 903 14Q977 33 1031 65Q1085 98 1115 138Q1145 179 1145 222Q1145 262 1121 286Q1098 310 1060 322Q1022 335 977 339Q932 344 888 344Q869 344 850 343Q831 343 814 343Q792 265 770 183Q749 102 726 25Q698 25 677 40Q657 55 657 77Q657 87 661 102Q665 117 671 135Q677 154 691 199Q706 244 726 305Q747 366 772 433Q797 501 824 565Q851 630 877 681Q836 673 809 660Q783 648 767 638Q752 629 744 629Q739 629 730 635Q721 642 714 650Q707 658 707 664Q760 686 816 703Q873 720 954 720Q989 720 1031 714Q1073 709 1111 692Q1149 676 1173 644Q1198 612 1198 558Q1198 513 1179 480Q1160 448 1128 425Q1096 403 1058 389Q1020 375 983 367Q1049 361 1091 343Q1134 326 1158 303Q1183 280 1192 255Q1202 230 1202 206Q1202 148 1171 101Q1141 54 1091 19Q1041 -16 981 -40Q921 -63 862 -75Q803 -87 756 -87ZM823 376Q878 378 932 388Q987 399 1031 421Q1075 443 1101 478Q1128 514 1128 566Q1128 616 1102 642Q1077 669 1036 679Q995 690 949 690Q946 690 944 690Q942 690 940 689Q905 621 876 541Q848 461 823 376Z" style="" fill="#f9d1c8"></path></g></g></g></svg>